<?xml version="1.0" encoding="utf-8" standalone="no"?>
<!DOCTYPE svg PUBLIC "-//W3C//DTD SVG 1.1//EN"
  "http://www.w3.org/Graphics/SVG/1.1/DTD/svg11.dtd">
<svg xmlns:xlink="http://www.w3.org/1999/xlink" width="1080pt" height="576pt" viewBox="0 0 1080 576" xmlns="http://www.w3.org/2000/svg" version="1.1">
 <metadata>
  <rdf:RDF xmlns:dc="http://purl.org/dc/elements/1.1/" xmlns:cc="http://creativecommons.org/ns#" xmlns:rdf="http://www.w3.org/1999/02/22-rdf-syntax-ns#">
   <cc:Work>
    <dc:type rdf:resource="http://purl.org/dc/dcmitype/StillImage"/>
    <dc:date>2022-03-01T12:02:26.305943</dc:date>
    <dc:format>image/svg+xml</dc:format>
    <dc:creator>
     <cc:Agent>
      <dc:title>Matplotlib v3.5.1, https://matplotlib.org/</dc:title>
     </cc:Agent>
    </dc:creator>
   </cc:Work>
  </rdf:RDF>
 </metadata>
 <defs>
  <style type="text/css">*{stroke-linejoin: round; stroke-linecap: butt}</style>
 </defs>
 <g id="figure_1">
  <g id="patch_1">
   <path d="M 0 576 
L 1080 576 
L 1080 0 
L 0 0 
z
" style="fill: #ffffff"/>
  </g>
  <g id="axes_1">
   <g id="patch_2">
    <path d="M 135 512.64 
L 972 512.64 
L 972 69.12 
L 135 69.12 
z
" style="fill: #ffffff"/>
   </g>
   <g id="patch_3">
    <path d="M 173.045455 512.64 
L 202.311189 512.64 
L 202.311189 101.95939 
L 173.045455 101.95939 
z
" clip-path="url(#pec1bd55360)" style="fill: #800000"/>
   </g>
   <g id="patch_4">
    <path d="M 202.311189 512.64 
L 231.576923 512.64 
L 231.576923 187.573589 
L 202.311189 187.573589 
z
" clip-path="url(#pec1bd55360)" style="fill: #800000"/>
   </g>
   <g id="patch_5">
    <path d="M 231.576923 512.64 
L 260.842657 512.64 
L 260.842657 302.283238 
L 231.576923 302.283238 
z
" clip-path="url(#pec1bd55360)" style="fill: #800000"/>
   </g>
   <g id="patch_6">
    <path d="M 260.842657 512.64 
L 290.108392 512.64 
L 290.108392 321.680205 
L 260.842657 321.680205 
z
" clip-path="url(#pec1bd55360)" style="fill: #800000"/>
   </g>
   <g id="patch_7">
    <path d="M 290.108392 512.64 
L 319.374126 512.64 
L 319.374126 380.205536 
L 290.108392 380.205536 
z
" clip-path="url(#pec1bd55360)" style="fill: #800000"/>
   </g>
   <g id="patch_8">
    <path d="M 319.374126 512.64 
L 348.63986 512.64 
L 348.63986 409.300987 
L 319.374126 409.300987 
z
" clip-path="url(#pec1bd55360)" style="fill: #800000"/>
   </g>
   <g id="patch_9">
    <path d="M 348.63986 512.64 
L 377.905594 512.64 
L 377.905594 430.035675 
L 348.63986 430.035675 
z
" clip-path="url(#pec1bd55360)" style="fill: #800000"/>
   </g>
   <g id="patch_10">
    <path d="M 377.905594 512.64 
L 407.171329 512.64 
L 407.171329 460.803278 
L 377.905594 460.803278 
z
" clip-path="url(#pec1bd55360)" style="fill: #800000"/>
   </g>
   <g id="patch_11">
    <path d="M 407.171329 512.64 
L 436.437063 512.64 
L 436.437063 466.823026 
L 407.171329 466.823026 
z
" clip-path="url(#pec1bd55360)" style="fill: #800000"/>
   </g>
   <g id="patch_12">
    <path d="M 436.437063 512.64 
L 465.702797 512.64 
L 465.702797 476.187079 
L 436.437063 476.187079 
z
" clip-path="url(#pec1bd55360)" style="fill: #800000"/>
   </g>
   <g id="patch_13">
    <path d="M 465.702797 512.64 
L 494.968531 512.64 
L 494.968531 491.23645 
L 465.702797 491.23645 
z
" clip-path="url(#pec1bd55360)" style="fill: #800000"/>
   </g>
   <g id="patch_14">
    <path d="M 494.968531 512.64 
L 524.234266 512.64 
L 524.234266 496.252907 
L 494.968531 496.252907 
z
" clip-path="url(#pec1bd55360)" style="fill: #800000"/>
   </g>
   <g id="patch_15">
    <path d="M 524.234266 512.64 
L 553.5 512.64 
L 553.5 501.938225 
L 524.234266 501.938225 
z
" clip-path="url(#pec1bd55360)" style="fill: #800000"/>
   </g>
   <g id="patch_16">
    <path d="M 553.5 512.64 
L 582.765734 512.64 
L 582.765734 505.951391 
L 553.5 505.951391 
z
" clip-path="url(#pec1bd55360)" style="fill: #800000"/>
   </g>
   <g id="patch_17">
    <path d="M 582.765734 512.64 
L 612.031469 512.64 
L 612.031469 506.954682 
L 582.765734 506.954682 
z
" clip-path="url(#pec1bd55360)" style="fill: #800000"/>
   </g>
   <g id="patch_18">
    <path d="M 612.031469 512.64 
L 641.297203 512.64 
L 641.297203 504.948099 
L 612.031469 504.948099 
z
" clip-path="url(#pec1bd55360)" style="fill: #800000"/>
   </g>
   <g id="patch_19">
    <path d="M 641.297203 512.64 
L 670.562937 512.64 
L 670.562937 508.292404 
L 641.297203 508.292404 
z
" clip-path="url(#pec1bd55360)" style="fill: #800000"/>
   </g>
   <g id="patch_20">
    <path d="M 670.562937 512.64 
L 699.828671 512.64 
L 699.828671 510.633417 
L 670.562937 510.633417 
z
" clip-path="url(#pec1bd55360)" style="fill: #800000"/>
   </g>
   <g id="patch_21">
    <path d="M 699.828671 512.64 
L 729.094406 512.64 
L 729.094406 510.298987 
L 699.828671 510.298987 
z
" clip-path="url(#pec1bd55360)" style="fill: #800000"/>
   </g>
   <g id="patch_22">
    <path d="M 729.094406 512.64 
L 758.36014 512.64 
L 758.36014 511.971139 
L 729.094406 511.971139 
z
" clip-path="url(#pec1bd55360)" style="fill: #800000"/>
   </g>
   <g id="patch_23">
    <path d="M 758.36014 512.64 
L 787.625874 512.64 
L 787.625874 510.967848 
L 758.36014 510.967848 
z
" clip-path="url(#pec1bd55360)" style="fill: #800000"/>
   </g>
   <g id="patch_24">
    <path d="M 787.625874 512.64 
L 816.891608 512.64 
L 816.891608 511.971139 
L 787.625874 511.971139 
z
" clip-path="url(#pec1bd55360)" style="fill: #800000"/>
   </g>
   <g id="patch_25">
    <path d="M 816.891608 512.64 
L 846.157343 512.64 
L 846.157343 511.636709 
L 816.891608 511.636709 
z
" clip-path="url(#pec1bd55360)" style="fill: #800000"/>
   </g>
   <g id="patch_26">
    <path d="M 846.157343 512.64 
L 875.423077 512.64 
L 875.423077 512.30557 
L 846.157343 512.30557 
z
" clip-path="url(#pec1bd55360)" style="fill: #800000"/>
   </g>
   <g id="patch_27">
    <path d="M 875.423077 512.64 
L 904.688811 512.64 
L 904.688811 512.30557 
L 875.423077 512.30557 
z
" clip-path="url(#pec1bd55360)" style="fill: #800000"/>
   </g>
   <g id="patch_28">
    <path d="M 904.688811 512.64 
L 933.954545 512.64 
L 933.954545 511.971139 
L 904.688811 511.971139 
z
" clip-path="url(#pec1bd55360)" style="fill: #800000"/>
   </g>
   <g id="matplotlib.axis_1">
    <g id="xtick_1">
     <g id="line2d_1">
      <path d="M 187.678322 512.64 
L 187.678322 69.12 
" clip-path="url(#pec1bd55360)" style="fill: none; stroke-dasharray: 2.96,1.28; stroke-dashoffset: 0; stroke: #000000; stroke-opacity: 0.4; stroke-width: 0.8"/>
     </g>
     <g id="line2d_2">
      <defs>
       <path id="mb2efb61042" d="M 0 0 
L 0 3.5 
" style="stroke: #000000; stroke-width: 0.8"/>
      </defs>
      <g>
       <use xlink:href="#mb2efb61042" x="187.678322" y="512.64" style="stroke: #000000; stroke-width: 0.8"/>
      </g>
     </g>
     <g id="text_1">
      <!-- 5 -->
      <g transform="translate(181.952072 533.317188)scale(0.18 -0.18)">
       <defs>
        <path id="DejaVuSans-35" d="M 691 4666 
L 3169 4666 
L 3169 4134 
L 1269 4134 
L 1269 2991 
Q 1406 3038 1543 3061 
Q 1681 3084 1819 3084 
Q 2600 3084 3056 2656 
Q 3513 2228 3513 1497 
Q 3513 744 3044 326 
Q 2575 -91 1722 -91 
Q 1428 -91 1123 -41 
Q 819 9 494 109 
L 494 744 
Q 775 591 1075 516 
Q 1375 441 1709 441 
Q 2250 441 2565 725 
Q 2881 1009 2881 1497 
Q 2881 1984 2565 2268 
Q 2250 2553 1709 2553 
Q 1456 2553 1204 2497 
Q 953 2441 691 2322 
L 691 4666 
z
" transform="scale(0.015625)"/>
       </defs>
       <use xlink:href="#DejaVuSans-35"/>
      </g>
     </g>
    </g>
    <g id="xtick_2">
     <g id="line2d_3">
      <path d="M 334.006993 512.64 
L 334.006993 69.12 
" clip-path="url(#pec1bd55360)" style="fill: none; stroke-dasharray: 2.96,1.28; stroke-dashoffset: 0; stroke: #000000; stroke-opacity: 0.4; stroke-width: 0.8"/>
     </g>
     <g id="line2d_4">
      <g>
       <use xlink:href="#mb2efb61042" x="334.006993" y="512.64" style="stroke: #000000; stroke-width: 0.8"/>
      </g>
     </g>
     <g id="text_2">
      <!-- 10 -->
      <g transform="translate(322.554493 533.317188)scale(0.18 -0.18)">
       <defs>
        <path id="DejaVuSans-31" d="M 794 531 
L 1825 531 
L 1825 4091 
L 703 3866 
L 703 4441 
L 1819 4666 
L 2450 4666 
L 2450 531 
L 3481 531 
L 3481 0 
L 794 0 
L 794 531 
z
" transform="scale(0.015625)"/>
        <path id="DejaVuSans-30" d="M 2034 4250 
Q 1547 4250 1301 3770 
Q 1056 3291 1056 2328 
Q 1056 1369 1301 889 
Q 1547 409 2034 409 
Q 2525 409 2770 889 
Q 3016 1369 3016 2328 
Q 3016 3291 2770 3770 
Q 2525 4250 2034 4250 
z
M 2034 4750 
Q 2819 4750 3233 4129 
Q 3647 3509 3647 2328 
Q 3647 1150 3233 529 
Q 2819 -91 2034 -91 
Q 1250 -91 836 529 
Q 422 1150 422 2328 
Q 422 3509 836 4129 
Q 1250 4750 2034 4750 
z
" transform="scale(0.015625)"/>
       </defs>
       <use xlink:href="#DejaVuSans-31"/>
       <use xlink:href="#DejaVuSans-30" x="63.623047"/>
      </g>
     </g>
    </g>
    <g id="xtick_3">
     <g id="line2d_5">
      <path d="M 480.335664 512.64 
L 480.335664 69.12 
" clip-path="url(#pec1bd55360)" style="fill: none; stroke-dasharray: 2.96,1.28; stroke-dashoffset: 0; stroke: #000000; stroke-opacity: 0.4; stroke-width: 0.8"/>
     </g>
     <g id="line2d_6">
      <g>
       <use xlink:href="#mb2efb61042" x="480.335664" y="512.64" style="stroke: #000000; stroke-width: 0.8"/>
      </g>
     </g>
     <g id="text_3">
      <!-- 15 -->
      <g transform="translate(468.883164 533.317188)scale(0.18 -0.18)">
       <use xlink:href="#DejaVuSans-31"/>
       <use xlink:href="#DejaVuSans-35" x="63.623047"/>
      </g>
     </g>
    </g>
    <g id="xtick_4">
     <g id="line2d_7">
      <path d="M 626.664336 512.64 
L 626.664336 69.12 
" clip-path="url(#pec1bd55360)" style="fill: none; stroke-dasharray: 2.96,1.28; stroke-dashoffset: 0; stroke: #000000; stroke-opacity: 0.4; stroke-width: 0.8"/>
     </g>
     <g id="line2d_8">
      <g>
       <use xlink:href="#mb2efb61042" x="626.664336" y="512.64" style="stroke: #000000; stroke-width: 0.8"/>
      </g>
     </g>
     <g id="text_4">
      <!-- 20 -->
      <g transform="translate(615.211836 533.317188)scale(0.18 -0.18)">
       <defs>
        <path id="DejaVuSans-32" d="M 1228 531 
L 3431 531 
L 3431 0 
L 469 0 
L 469 531 
Q 828 903 1448 1529 
Q 2069 2156 2228 2338 
Q 2531 2678 2651 2914 
Q 2772 3150 2772 3378 
Q 2772 3750 2511 3984 
Q 2250 4219 1831 4219 
Q 1534 4219 1204 4116 
Q 875 4013 500 3803 
L 500 4441 
Q 881 4594 1212 4672 
Q 1544 4750 1819 4750 
Q 2544 4750 2975 4387 
Q 3406 4025 3406 3419 
Q 3406 3131 3298 2873 
Q 3191 2616 2906 2266 
Q 2828 2175 2409 1742 
Q 1991 1309 1228 531 
z
" transform="scale(0.015625)"/>
       </defs>
       <use xlink:href="#DejaVuSans-32"/>
       <use xlink:href="#DejaVuSans-30" x="63.623047"/>
      </g>
     </g>
    </g>
    <g id="xtick_5">
     <g id="line2d_9">
      <path d="M 772.993007 512.64 
L 772.993007 69.12 
" clip-path="url(#pec1bd55360)" style="fill: none; stroke-dasharray: 2.96,1.28; stroke-dashoffset: 0; stroke: #000000; stroke-opacity: 0.4; stroke-width: 0.8"/>
     </g>
     <g id="line2d_10">
      <g>
       <use xlink:href="#mb2efb61042" x="772.993007" y="512.64" style="stroke: #000000; stroke-width: 0.8"/>
      </g>
     </g>
     <g id="text_5">
      <!-- 25 -->
      <g transform="translate(761.540507 533.317188)scale(0.18 -0.18)">
       <use xlink:href="#DejaVuSans-32"/>
       <use xlink:href="#DejaVuSans-35" x="63.623047"/>
      </g>
     </g>
    </g>
    <g id="xtick_6">
     <g id="line2d_11">
      <path d="M 919.321678 512.64 
L 919.321678 69.12 
" clip-path="url(#pec1bd55360)" style="fill: none; stroke-dasharray: 2.96,1.28; stroke-dashoffset: 0; stroke: #000000; stroke-opacity: 0.4; stroke-width: 0.8"/>
     </g>
     <g id="line2d_12">
      <g>
       <use xlink:href="#mb2efb61042" x="919.321678" y="512.64" style="stroke: #000000; stroke-width: 0.8"/>
      </g>
     </g>
     <g id="text_6">
      <!-- 30 -->
      <g transform="translate(907.869178 533.317188)scale(0.18 -0.18)">
       <defs>
        <path id="DejaVuSans-33" d="M 2597 2516 
Q 3050 2419 3304 2112 
Q 3559 1806 3559 1356 
Q 3559 666 3084 287 
Q 2609 -91 1734 -91 
Q 1441 -91 1130 -33 
Q 819 25 488 141 
L 488 750 
Q 750 597 1062 519 
Q 1375 441 1716 441 
Q 2309 441 2620 675 
Q 2931 909 2931 1356 
Q 2931 1769 2642 2001 
Q 2353 2234 1838 2234 
L 1294 2234 
L 1294 2753 
L 1863 2753 
Q 2328 2753 2575 2939 
Q 2822 3125 2822 3475 
Q 2822 3834 2567 4026 
Q 2313 4219 1838 4219 
Q 1578 4219 1281 4162 
Q 984 4106 628 3988 
L 628 4550 
Q 988 4650 1302 4700 
Q 1616 4750 1894 4750 
Q 2613 4750 3031 4423 
Q 3450 4097 3450 3541 
Q 3450 3153 3228 2886 
Q 3006 2619 2597 2516 
z
" transform="scale(0.015625)"/>
       </defs>
       <use xlink:href="#DejaVuSans-33"/>
       <use xlink:href="#DejaVuSans-30" x="63.623047"/>
      </g>
     </g>
    </g>
    <g id="text_7">
     <!-- Length of Reber String -->
     <g transform="translate(452.0025 554.737813)scale(0.18 -0.18)">
      <defs>
       <path id="DejaVuSans-4c" d="M 628 4666 
L 1259 4666 
L 1259 531 
L 3531 531 
L 3531 0 
L 628 0 
L 628 4666 
z
" transform="scale(0.015625)"/>
       <path id="DejaVuSans-65" d="M 3597 1894 
L 3597 1613 
L 953 1613 
Q 991 1019 1311 708 
Q 1631 397 2203 397 
Q 2534 397 2845 478 
Q 3156 559 3463 722 
L 3463 178 
Q 3153 47 2828 -22 
Q 2503 -91 2169 -91 
Q 1331 -91 842 396 
Q 353 884 353 1716 
Q 353 2575 817 3079 
Q 1281 3584 2069 3584 
Q 2775 3584 3186 3129 
Q 3597 2675 3597 1894 
z
M 3022 2063 
Q 3016 2534 2758 2815 
Q 2500 3097 2075 3097 
Q 1594 3097 1305 2825 
Q 1016 2553 972 2059 
L 3022 2063 
z
" transform="scale(0.015625)"/>
       <path id="DejaVuSans-6e" d="M 3513 2113 
L 3513 0 
L 2938 0 
L 2938 2094 
Q 2938 2591 2744 2837 
Q 2550 3084 2163 3084 
Q 1697 3084 1428 2787 
Q 1159 2491 1159 1978 
L 1159 0 
L 581 0 
L 581 3500 
L 1159 3500 
L 1159 2956 
Q 1366 3272 1645 3428 
Q 1925 3584 2291 3584 
Q 2894 3584 3203 3211 
Q 3513 2838 3513 2113 
z
" transform="scale(0.015625)"/>
       <path id="DejaVuSans-67" d="M 2906 1791 
Q 2906 2416 2648 2759 
Q 2391 3103 1925 3103 
Q 1463 3103 1205 2759 
Q 947 2416 947 1791 
Q 947 1169 1205 825 
Q 1463 481 1925 481 
Q 2391 481 2648 825 
Q 2906 1169 2906 1791 
z
M 3481 434 
Q 3481 -459 3084 -895 
Q 2688 -1331 1869 -1331 
Q 1566 -1331 1297 -1286 
Q 1028 -1241 775 -1147 
L 775 -588 
Q 1028 -725 1275 -790 
Q 1522 -856 1778 -856 
Q 2344 -856 2625 -561 
Q 2906 -266 2906 331 
L 2906 616 
Q 2728 306 2450 153 
Q 2172 0 1784 0 
Q 1141 0 747 490 
Q 353 981 353 1791 
Q 353 2603 747 3093 
Q 1141 3584 1784 3584 
Q 2172 3584 2450 3431 
Q 2728 3278 2906 2969 
L 2906 3500 
L 3481 3500 
L 3481 434 
z
" transform="scale(0.015625)"/>
       <path id="DejaVuSans-74" d="M 1172 4494 
L 1172 3500 
L 2356 3500 
L 2356 3053 
L 1172 3053 
L 1172 1153 
Q 1172 725 1289 603 
Q 1406 481 1766 481 
L 2356 481 
L 2356 0 
L 1766 0 
Q 1100 0 847 248 
Q 594 497 594 1153 
L 594 3053 
L 172 3053 
L 172 3500 
L 594 3500 
L 594 4494 
L 1172 4494 
z
" transform="scale(0.015625)"/>
       <path id="DejaVuSans-68" d="M 3513 2113 
L 3513 0 
L 2938 0 
L 2938 2094 
Q 2938 2591 2744 2837 
Q 2550 3084 2163 3084 
Q 1697 3084 1428 2787 
Q 1159 2491 1159 1978 
L 1159 0 
L 581 0 
L 581 4863 
L 1159 4863 
L 1159 2956 
Q 1366 3272 1645 3428 
Q 1925 3584 2291 3584 
Q 2894 3584 3203 3211 
Q 3513 2838 3513 2113 
z
" transform="scale(0.015625)"/>
       <path id="DejaVuSans-20" transform="scale(0.015625)"/>
       <path id="DejaVuSans-6f" d="M 1959 3097 
Q 1497 3097 1228 2736 
Q 959 2375 959 1747 
Q 959 1119 1226 758 
Q 1494 397 1959 397 
Q 2419 397 2687 759 
Q 2956 1122 2956 1747 
Q 2956 2369 2687 2733 
Q 2419 3097 1959 3097 
z
M 1959 3584 
Q 2709 3584 3137 3096 
Q 3566 2609 3566 1747 
Q 3566 888 3137 398 
Q 2709 -91 1959 -91 
Q 1206 -91 779 398 
Q 353 888 353 1747 
Q 353 2609 779 3096 
Q 1206 3584 1959 3584 
z
" transform="scale(0.015625)"/>
       <path id="DejaVuSans-66" d="M 2375 4863 
L 2375 4384 
L 1825 4384 
Q 1516 4384 1395 4259 
Q 1275 4134 1275 3809 
L 1275 3500 
L 2222 3500 
L 2222 3053 
L 1275 3053 
L 1275 0 
L 697 0 
L 697 3053 
L 147 3053 
L 147 3500 
L 697 3500 
L 697 3744 
Q 697 4328 969 4595 
Q 1241 4863 1831 4863 
L 2375 4863 
z
" transform="scale(0.015625)"/>
       <path id="DejaVuSans-52" d="M 2841 2188 
Q 3044 2119 3236 1894 
Q 3428 1669 3622 1275 
L 4263 0 
L 3584 0 
L 2988 1197 
Q 2756 1666 2539 1819 
Q 2322 1972 1947 1972 
L 1259 1972 
L 1259 0 
L 628 0 
L 628 4666 
L 2053 4666 
Q 2853 4666 3247 4331 
Q 3641 3997 3641 3322 
Q 3641 2881 3436 2590 
Q 3231 2300 2841 2188 
z
M 1259 4147 
L 1259 2491 
L 2053 2491 
Q 2509 2491 2742 2702 
Q 2975 2913 2975 3322 
Q 2975 3731 2742 3939 
Q 2509 4147 2053 4147 
L 1259 4147 
z
" transform="scale(0.015625)"/>
       <path id="DejaVuSans-62" d="M 3116 1747 
Q 3116 2381 2855 2742 
Q 2594 3103 2138 3103 
Q 1681 3103 1420 2742 
Q 1159 2381 1159 1747 
Q 1159 1113 1420 752 
Q 1681 391 2138 391 
Q 2594 391 2855 752 
Q 3116 1113 3116 1747 
z
M 1159 2969 
Q 1341 3281 1617 3432 
Q 1894 3584 2278 3584 
Q 2916 3584 3314 3078 
Q 3713 2572 3713 1747 
Q 3713 922 3314 415 
Q 2916 -91 2278 -91 
Q 1894 -91 1617 61 
Q 1341 213 1159 525 
L 1159 0 
L 581 0 
L 581 4863 
L 1159 4863 
L 1159 2969 
z
" transform="scale(0.015625)"/>
       <path id="DejaVuSans-72" d="M 2631 2963 
Q 2534 3019 2420 3045 
Q 2306 3072 2169 3072 
Q 1681 3072 1420 2755 
Q 1159 2438 1159 1844 
L 1159 0 
L 581 0 
L 581 3500 
L 1159 3500 
L 1159 2956 
Q 1341 3275 1631 3429 
Q 1922 3584 2338 3584 
Q 2397 3584 2469 3576 
Q 2541 3569 2628 3553 
L 2631 2963 
z
" transform="scale(0.015625)"/>
       <path id="DejaVuSans-53" d="M 3425 4513 
L 3425 3897 
Q 3066 4069 2747 4153 
Q 2428 4238 2131 4238 
Q 1616 4238 1336 4038 
Q 1056 3838 1056 3469 
Q 1056 3159 1242 3001 
Q 1428 2844 1947 2747 
L 2328 2669 
Q 3034 2534 3370 2195 
Q 3706 1856 3706 1288 
Q 3706 609 3251 259 
Q 2797 -91 1919 -91 
Q 1588 -91 1214 -16 
Q 841 59 441 206 
L 441 856 
Q 825 641 1194 531 
Q 1563 422 1919 422 
Q 2459 422 2753 634 
Q 3047 847 3047 1241 
Q 3047 1584 2836 1778 
Q 2625 1972 2144 2069 
L 1759 2144 
Q 1053 2284 737 2584 
Q 422 2884 422 3419 
Q 422 4038 858 4394 
Q 1294 4750 2059 4750 
Q 2388 4750 2728 4690 
Q 3069 4631 3425 4513 
z
" transform="scale(0.015625)"/>
       <path id="DejaVuSans-69" d="M 603 3500 
L 1178 3500 
L 1178 0 
L 603 0 
L 603 3500 
z
M 603 4863 
L 1178 4863 
L 1178 4134 
L 603 4134 
L 603 4863 
z
" transform="scale(0.015625)"/>
      </defs>
      <use xlink:href="#DejaVuSans-4c"/>
      <use xlink:href="#DejaVuSans-65" x="53.962891"/>
      <use xlink:href="#DejaVuSans-6e" x="115.486328"/>
      <use xlink:href="#DejaVuSans-67" x="178.865234"/>
      <use xlink:href="#DejaVuSans-74" x="242.341797"/>
      <use xlink:href="#DejaVuSans-68" x="281.550781"/>
      <use xlink:href="#DejaVuSans-20" x="344.929688"/>
      <use xlink:href="#DejaVuSans-6f" x="376.716797"/>
      <use xlink:href="#DejaVuSans-66" x="437.898438"/>
      <use xlink:href="#DejaVuSans-20" x="473.103516"/>
      <use xlink:href="#DejaVuSans-52" x="504.890625"/>
      <use xlink:href="#DejaVuSans-65" x="569.873047"/>
      <use xlink:href="#DejaVuSans-62" x="631.396484"/>
      <use xlink:href="#DejaVuSans-65" x="694.873047"/>
      <use xlink:href="#DejaVuSans-72" x="756.396484"/>
      <use xlink:href="#DejaVuSans-20" x="797.509766"/>
      <use xlink:href="#DejaVuSans-53" x="829.296875"/>
      <use xlink:href="#DejaVuSans-74" x="892.773438"/>
      <use xlink:href="#DejaVuSans-72" x="931.982422"/>
      <use xlink:href="#DejaVuSans-69" x="973.095703"/>
      <use xlink:href="#DejaVuSans-6e" x="1000.878906"/>
      <use xlink:href="#DejaVuSans-67" x="1064.257812"/>
     </g>
    </g>
   </g>
   <g id="matplotlib.axis_2">
    <g id="ytick_1">
     <g id="line2d_13">
      <path d="M 135 512.64 
L 972 512.64 
" clip-path="url(#pec1bd55360)" style="fill: none; stroke-dasharray: 2.96,1.28; stroke-dashoffset: 0; stroke: #000000; stroke-opacity: 0.4; stroke-width: 0.8"/>
     </g>
     <g id="line2d_14">
      <defs>
       <path id="m12a22340a6" d="M 0 0 
L -3.5 0 
" style="stroke: #000000; stroke-width: 0.8"/>
      </defs>
      <g>
       <use xlink:href="#m12a22340a6" x="135" y="512.64" style="stroke: #000000; stroke-width: 0.8"/>
      </g>
     </g>
     <g id="text_8">
      <!-- 0 -->
      <g transform="translate(116.5475 519.478594)scale(0.18 -0.18)">
       <use xlink:href="#DejaVuSans-30"/>
      </g>
     </g>
    </g>
    <g id="ytick_2">
     <g id="line2d_15">
      <path d="M 135 445.753907 
L 972 445.753907 
" clip-path="url(#pec1bd55360)" style="fill: none; stroke-dasharray: 2.96,1.28; stroke-dashoffset: 0; stroke: #000000; stroke-opacity: 0.4; stroke-width: 0.8"/>
     </g>
     <g id="line2d_16">
      <g>
       <use xlink:href="#m12a22340a6" x="135" y="445.753907" style="stroke: #000000; stroke-width: 0.8"/>
      </g>
     </g>
     <g id="text_9">
      <!-- 200 -->
      <g transform="translate(93.6425 452.592501)scale(0.18 -0.18)">
       <use xlink:href="#DejaVuSans-32"/>
       <use xlink:href="#DejaVuSans-30" x="63.623047"/>
       <use xlink:href="#DejaVuSans-30" x="127.246094"/>
      </g>
     </g>
    </g>
    <g id="ytick_3">
     <g id="line2d_17">
      <path d="M 135 378.867814 
L 972 378.867814 
" clip-path="url(#pec1bd55360)" style="fill: none; stroke-dasharray: 2.96,1.28; stroke-dashoffset: 0; stroke: #000000; stroke-opacity: 0.4; stroke-width: 0.8"/>
     </g>
     <g id="line2d_18">
      <g>
       <use xlink:href="#m12a22340a6" x="135" y="378.867814" style="stroke: #000000; stroke-width: 0.8"/>
      </g>
     </g>
     <g id="text_10">
      <!-- 400 -->
      <g transform="translate(93.6425 385.706408)scale(0.18 -0.18)">
       <defs>
        <path id="DejaVuSans-34" d="M 2419 4116 
L 825 1625 
L 2419 1625 
L 2419 4116 
z
M 2253 4666 
L 3047 4666 
L 3047 1625 
L 3713 1625 
L 3713 1100 
L 3047 1100 
L 3047 0 
L 2419 0 
L 2419 1100 
L 313 1100 
L 313 1709 
L 2253 4666 
z
" transform="scale(0.015625)"/>
       </defs>
       <use xlink:href="#DejaVuSans-34"/>
       <use xlink:href="#DejaVuSans-30" x="63.623047"/>
       <use xlink:href="#DejaVuSans-30" x="127.246094"/>
      </g>
     </g>
    </g>
    <g id="ytick_4">
     <g id="line2d_19">
      <path d="M 135 311.981722 
L 972 311.981722 
" clip-path="url(#pec1bd55360)" style="fill: none; stroke-dasharray: 2.96,1.28; stroke-dashoffset: 0; stroke: #000000; stroke-opacity: 0.4; stroke-width: 0.8"/>
     </g>
     <g id="line2d_20">
      <g>
       <use xlink:href="#m12a22340a6" x="135" y="311.981722" style="stroke: #000000; stroke-width: 0.8"/>
      </g>
     </g>
     <g id="text_11">
      <!-- 600 -->
      <g transform="translate(93.6425 318.820315)scale(0.18 -0.18)">
       <defs>
        <path id="DejaVuSans-36" d="M 2113 2584 
Q 1688 2584 1439 2293 
Q 1191 2003 1191 1497 
Q 1191 994 1439 701 
Q 1688 409 2113 409 
Q 2538 409 2786 701 
Q 3034 994 3034 1497 
Q 3034 2003 2786 2293 
Q 2538 2584 2113 2584 
z
M 3366 4563 
L 3366 3988 
Q 3128 4100 2886 4159 
Q 2644 4219 2406 4219 
Q 1781 4219 1451 3797 
Q 1122 3375 1075 2522 
Q 1259 2794 1537 2939 
Q 1816 3084 2150 3084 
Q 2853 3084 3261 2657 
Q 3669 2231 3669 1497 
Q 3669 778 3244 343 
Q 2819 -91 2113 -91 
Q 1303 -91 875 529 
Q 447 1150 447 2328 
Q 447 3434 972 4092 
Q 1497 4750 2381 4750 
Q 2619 4750 2861 4703 
Q 3103 4656 3366 4563 
z
" transform="scale(0.015625)"/>
       </defs>
       <use xlink:href="#DejaVuSans-36"/>
       <use xlink:href="#DejaVuSans-30" x="63.623047"/>
       <use xlink:href="#DejaVuSans-30" x="127.246094"/>
      </g>
     </g>
    </g>
    <g id="ytick_5">
     <g id="line2d_21">
      <path d="M 135 245.095629 
L 972 245.095629 
" clip-path="url(#pec1bd55360)" style="fill: none; stroke-dasharray: 2.96,1.28; stroke-dashoffset: 0; stroke: #000000; stroke-opacity: 0.4; stroke-width: 0.8"/>
     </g>
     <g id="line2d_22">
      <g>
       <use xlink:href="#m12a22340a6" x="135" y="245.095629" style="stroke: #000000; stroke-width: 0.8"/>
      </g>
     </g>
     <g id="text_12">
      <!-- 800 -->
      <g transform="translate(93.6425 251.934223)scale(0.18 -0.18)">
       <defs>
        <path id="DejaVuSans-38" d="M 2034 2216 
Q 1584 2216 1326 1975 
Q 1069 1734 1069 1313 
Q 1069 891 1326 650 
Q 1584 409 2034 409 
Q 2484 409 2743 651 
Q 3003 894 3003 1313 
Q 3003 1734 2745 1975 
Q 2488 2216 2034 2216 
z
M 1403 2484 
Q 997 2584 770 2862 
Q 544 3141 544 3541 
Q 544 4100 942 4425 
Q 1341 4750 2034 4750 
Q 2731 4750 3128 4425 
Q 3525 4100 3525 3541 
Q 3525 3141 3298 2862 
Q 3072 2584 2669 2484 
Q 3125 2378 3379 2068 
Q 3634 1759 3634 1313 
Q 3634 634 3220 271 
Q 2806 -91 2034 -91 
Q 1263 -91 848 271 
Q 434 634 434 1313 
Q 434 1759 690 2068 
Q 947 2378 1403 2484 
z
M 1172 3481 
Q 1172 3119 1398 2916 
Q 1625 2713 2034 2713 
Q 2441 2713 2670 2916 
Q 2900 3119 2900 3481 
Q 2900 3844 2670 4047 
Q 2441 4250 2034 4250 
Q 1625 4250 1398 4047 
Q 1172 3844 1172 3481 
z
" transform="scale(0.015625)"/>
       </defs>
       <use xlink:href="#DejaVuSans-38"/>
       <use xlink:href="#DejaVuSans-30" x="63.623047"/>
       <use xlink:href="#DejaVuSans-30" x="127.246094"/>
      </g>
     </g>
    </g>
    <g id="ytick_6">
     <g id="line2d_23">
      <path d="M 135 178.209536 
L 972 178.209536 
" clip-path="url(#pec1bd55360)" style="fill: none; stroke-dasharray: 2.96,1.28; stroke-dashoffset: 0; stroke: #000000; stroke-opacity: 0.4; stroke-width: 0.8"/>
     </g>
     <g id="line2d_24">
      <g>
       <use xlink:href="#m12a22340a6" x="135" y="178.209536" style="stroke: #000000; stroke-width: 0.8"/>
      </g>
     </g>
     <g id="text_13">
      <!-- 1000 -->
      <g transform="translate(82.19 185.04813)scale(0.18 -0.18)">
       <use xlink:href="#DejaVuSans-31"/>
       <use xlink:href="#DejaVuSans-30" x="63.623047"/>
       <use xlink:href="#DejaVuSans-30" x="127.246094"/>
       <use xlink:href="#DejaVuSans-30" x="190.869141"/>
      </g>
     </g>
    </g>
    <g id="ytick_7">
     <g id="line2d_25">
      <path d="M 135 111.323443 
L 972 111.323443 
" clip-path="url(#pec1bd55360)" style="fill: none; stroke-dasharray: 2.96,1.28; stroke-dashoffset: 0; stroke: #000000; stroke-opacity: 0.4; stroke-width: 0.8"/>
     </g>
     <g id="line2d_26">
      <g>
       <use xlink:href="#m12a22340a6" x="135" y="111.323443" style="stroke: #000000; stroke-width: 0.8"/>
      </g>
     </g>
     <g id="text_14">
      <!-- 1200 -->
      <g transform="translate(82.19 118.162037)scale(0.18 -0.18)">
       <use xlink:href="#DejaVuSans-31"/>
       <use xlink:href="#DejaVuSans-32" x="63.623047"/>
       <use xlink:href="#DejaVuSans-30" x="127.246094"/>
       <use xlink:href="#DejaVuSans-30" x="190.869141"/>
      </g>
     </g>
    </g>
    <g id="text_15">
     <!-- Number of Occurrences  -->
     <g transform="translate(54.2905 400.4325)rotate(-90)scale(0.18 -0.18)">
      <defs>
       <path id="DejaVuSans-4e" d="M 628 4666 
L 1478 4666 
L 3547 763 
L 3547 4666 
L 4159 4666 
L 4159 0 
L 3309 0 
L 1241 3903 
L 1241 0 
L 628 0 
L 628 4666 
z
" transform="scale(0.015625)"/>
       <path id="DejaVuSans-75" d="M 544 1381 
L 544 3500 
L 1119 3500 
L 1119 1403 
Q 1119 906 1312 657 
Q 1506 409 1894 409 
Q 2359 409 2629 706 
Q 2900 1003 2900 1516 
L 2900 3500 
L 3475 3500 
L 3475 0 
L 2900 0 
L 2900 538 
Q 2691 219 2414 64 
Q 2138 -91 1772 -91 
Q 1169 -91 856 284 
Q 544 659 544 1381 
z
M 1991 3584 
L 1991 3584 
z
" transform="scale(0.015625)"/>
       <path id="DejaVuSans-6d" d="M 3328 2828 
Q 3544 3216 3844 3400 
Q 4144 3584 4550 3584 
Q 5097 3584 5394 3201 
Q 5691 2819 5691 2113 
L 5691 0 
L 5113 0 
L 5113 2094 
Q 5113 2597 4934 2840 
Q 4756 3084 4391 3084 
Q 3944 3084 3684 2787 
Q 3425 2491 3425 1978 
L 3425 0 
L 2847 0 
L 2847 2094 
Q 2847 2600 2669 2842 
Q 2491 3084 2119 3084 
Q 1678 3084 1418 2786 
Q 1159 2488 1159 1978 
L 1159 0 
L 581 0 
L 581 3500 
L 1159 3500 
L 1159 2956 
Q 1356 3278 1631 3431 
Q 1906 3584 2284 3584 
Q 2666 3584 2933 3390 
Q 3200 3197 3328 2828 
z
" transform="scale(0.015625)"/>
       <path id="DejaVuSans-4f" d="M 2522 4238 
Q 1834 4238 1429 3725 
Q 1025 3213 1025 2328 
Q 1025 1447 1429 934 
Q 1834 422 2522 422 
Q 3209 422 3611 934 
Q 4013 1447 4013 2328 
Q 4013 3213 3611 3725 
Q 3209 4238 2522 4238 
z
M 2522 4750 
Q 3503 4750 4090 4092 
Q 4678 3434 4678 2328 
Q 4678 1225 4090 567 
Q 3503 -91 2522 -91 
Q 1538 -91 948 565 
Q 359 1222 359 2328 
Q 359 3434 948 4092 
Q 1538 4750 2522 4750 
z
" transform="scale(0.015625)"/>
       <path id="DejaVuSans-63" d="M 3122 3366 
L 3122 2828 
Q 2878 2963 2633 3030 
Q 2388 3097 2138 3097 
Q 1578 3097 1268 2742 
Q 959 2388 959 1747 
Q 959 1106 1268 751 
Q 1578 397 2138 397 
Q 2388 397 2633 464 
Q 2878 531 3122 666 
L 3122 134 
Q 2881 22 2623 -34 
Q 2366 -91 2075 -91 
Q 1284 -91 818 406 
Q 353 903 353 1747 
Q 353 2603 823 3093 
Q 1294 3584 2113 3584 
Q 2378 3584 2631 3529 
Q 2884 3475 3122 3366 
z
" transform="scale(0.015625)"/>
       <path id="DejaVuSans-73" d="M 2834 3397 
L 2834 2853 
Q 2591 2978 2328 3040 
Q 2066 3103 1784 3103 
Q 1356 3103 1142 2972 
Q 928 2841 928 2578 
Q 928 2378 1081 2264 
Q 1234 2150 1697 2047 
L 1894 2003 
Q 2506 1872 2764 1633 
Q 3022 1394 3022 966 
Q 3022 478 2636 193 
Q 2250 -91 1575 -91 
Q 1294 -91 989 -36 
Q 684 19 347 128 
L 347 722 
Q 666 556 975 473 
Q 1284 391 1588 391 
Q 1994 391 2212 530 
Q 2431 669 2431 922 
Q 2431 1156 2273 1281 
Q 2116 1406 1581 1522 
L 1381 1569 
Q 847 1681 609 1914 
Q 372 2147 372 2553 
Q 372 3047 722 3315 
Q 1072 3584 1716 3584 
Q 2034 3584 2315 3537 
Q 2597 3491 2834 3397 
z
" transform="scale(0.015625)"/>
      </defs>
      <use xlink:href="#DejaVuSans-4e"/>
      <use xlink:href="#DejaVuSans-75" x="74.804688"/>
      <use xlink:href="#DejaVuSans-6d" x="138.183594"/>
      <use xlink:href="#DejaVuSans-62" x="235.595703"/>
      <use xlink:href="#DejaVuSans-65" x="299.072266"/>
      <use xlink:href="#DejaVuSans-72" x="360.595703"/>
      <use xlink:href="#DejaVuSans-20" x="401.708984"/>
      <use xlink:href="#DejaVuSans-6f" x="433.496094"/>
      <use xlink:href="#DejaVuSans-66" x="494.677734"/>
      <use xlink:href="#DejaVuSans-20" x="529.882812"/>
      <use xlink:href="#DejaVuSans-4f" x="561.669922"/>
      <use xlink:href="#DejaVuSans-63" x="640.380859"/>
      <use xlink:href="#DejaVuSans-63" x="695.361328"/>
      <use xlink:href="#DejaVuSans-75" x="750.341797"/>
      <use xlink:href="#DejaVuSans-72" x="813.720703"/>
      <use xlink:href="#DejaVuSans-72" x="853.083984"/>
      <use xlink:href="#DejaVuSans-65" x="891.947266"/>
      <use xlink:href="#DejaVuSans-6e" x="953.470703"/>
      <use xlink:href="#DejaVuSans-63" x="1016.849609"/>
      <use xlink:href="#DejaVuSans-65" x="1071.830078"/>
      <use xlink:href="#DejaVuSans-73" x="1133.353516"/>
      <use xlink:href="#DejaVuSans-20" x="1185.453125"/>
     </g>
     <!--  in Inputstream -->
     <g transform="translate(74.446562 359.642812)rotate(-90)scale(0.18 -0.18)">
      <defs>
       <path id="DejaVuSans-49" d="M 628 4666 
L 1259 4666 
L 1259 0 
L 628 0 
L 628 4666 
z
" transform="scale(0.015625)"/>
       <path id="DejaVuSans-70" d="M 1159 525 
L 1159 -1331 
L 581 -1331 
L 581 3500 
L 1159 3500 
L 1159 2969 
Q 1341 3281 1617 3432 
Q 1894 3584 2278 3584 
Q 2916 3584 3314 3078 
Q 3713 2572 3713 1747 
Q 3713 922 3314 415 
Q 2916 -91 2278 -91 
Q 1894 -91 1617 61 
Q 1341 213 1159 525 
z
M 3116 1747 
Q 3116 2381 2855 2742 
Q 2594 3103 2138 3103 
Q 1681 3103 1420 2742 
Q 1159 2381 1159 1747 
Q 1159 1113 1420 752 
Q 1681 391 2138 391 
Q 2594 391 2855 752 
Q 3116 1113 3116 1747 
z
" transform="scale(0.015625)"/>
       <path id="DejaVuSans-61" d="M 2194 1759 
Q 1497 1759 1228 1600 
Q 959 1441 959 1056 
Q 959 750 1161 570 
Q 1363 391 1709 391 
Q 2188 391 2477 730 
Q 2766 1069 2766 1631 
L 2766 1759 
L 2194 1759 
z
M 3341 1997 
L 3341 0 
L 2766 0 
L 2766 531 
Q 2569 213 2275 61 
Q 1981 -91 1556 -91 
Q 1019 -91 701 211 
Q 384 513 384 1019 
Q 384 1609 779 1909 
Q 1175 2209 1959 2209 
L 2766 2209 
L 2766 2266 
Q 2766 2663 2505 2880 
Q 2244 3097 1772 3097 
Q 1472 3097 1187 3025 
Q 903 2953 641 2809 
L 641 3341 
Q 956 3463 1253 3523 
Q 1550 3584 1831 3584 
Q 2591 3584 2966 3190 
Q 3341 2797 3341 1997 
z
" transform="scale(0.015625)"/>
      </defs>
      <use xlink:href="#DejaVuSans-20"/>
      <use xlink:href="#DejaVuSans-69" x="31.787109"/>
      <use xlink:href="#DejaVuSans-6e" x="59.570312"/>
      <use xlink:href="#DejaVuSans-20" x="122.949219"/>
      <use xlink:href="#DejaVuSans-49" x="154.736328"/>
      <use xlink:href="#DejaVuSans-6e" x="184.228516"/>
      <use xlink:href="#DejaVuSans-70" x="247.607422"/>
      <use xlink:href="#DejaVuSans-75" x="311.083984"/>
      <use xlink:href="#DejaVuSans-74" x="374.462891"/>
      <use xlink:href="#DejaVuSans-73" x="413.671875"/>
      <use xlink:href="#DejaVuSans-74" x="465.771484"/>
      <use xlink:href="#DejaVuSans-72" x="504.980469"/>
      <use xlink:href="#DejaVuSans-65" x="543.84375"/>
      <use xlink:href="#DejaVuSans-61" x="605.367188"/>
      <use xlink:href="#DejaVuSans-6d" x="666.646484"/>
     </g>
    </g>
   </g>
   <g id="LineCollection_1">
    <path d="M 187.678322 113.67878 
L 187.678322 90.24 
" clip-path="url(#pec1bd55360)" style="fill: none; stroke: #000000; stroke-opacity: 0.7; stroke-width: 3"/>
    <path d="M 216.944056 198.000099 
L 216.944056 177.147079 
" clip-path="url(#pec1bd55360)" style="fill: none; stroke: #000000; stroke-opacity: 0.7; stroke-width: 3"/>
    <path d="M 246.20979 310.670712 
L 246.20979 293.895765 
" clip-path="url(#pec1bd55360)" style="fill: none; stroke: #000000; stroke-opacity: 0.7; stroke-width: 3"/>
    <path d="M 275.475524 329.671624 
L 275.475524 313.688786 
" clip-path="url(#pec1bd55360)" style="fill: none; stroke: #000000; stroke-opacity: 0.7; stroke-width: 3"/>
    <path d="M 304.741259 386.860618 
L 304.741259 373.550454 
" clip-path="url(#pec1bd55360)" style="fill: none; stroke: #000000; stroke-opacity: 0.7; stroke-width: 3"/>
    <path d="M 334.006993 415.179738 
L 334.006993 403.422236 
" clip-path="url(#pec1bd55360)" style="fill: none; stroke: #000000; stroke-opacity: 0.7; stroke-width: 3"/>
    <path d="M 363.272727 435.291663 
L 363.272727 424.779688 
" clip-path="url(#pec1bd55360)" style="fill: none; stroke: #000000; stroke-opacity: 0.7; stroke-width: 3"/>
    <path d="M 392.538462 464.966904 
L 392.538462 456.639652 
" clip-path="url(#pec1bd55360)" style="fill: none; stroke: #000000; stroke-opacity: 0.7; stroke-width: 3"/>
    <path d="M 421.804196 470.737435 
L 421.804196 462.908618 
" clip-path="url(#pec1bd55360)" style="fill: none; stroke: #000000; stroke-opacity: 0.7; stroke-width: 3"/>
    <path d="M 451.06993 479.678636 
L 451.06993 472.695523 
" clip-path="url(#pec1bd55360)" style="fill: none; stroke: #000000; stroke-opacity: 0.7; stroke-width: 3"/>
    <path d="M 480.335664 493.911894 
L 480.335664 488.561007 
" clip-path="url(#pec1bd55360)" style="fill: none; stroke: #000000; stroke-opacity: 0.7; stroke-width: 3"/>
    <path d="M 509.601399 498.593921 
L 509.601399 493.911894 
" clip-path="url(#pec1bd55360)" style="fill: none; stroke: #000000; stroke-opacity: 0.7; stroke-width: 3"/>
    <path d="M 538.867133 503.83005 
L 538.867133 500.046401 
" clip-path="url(#pec1bd55360)" style="fill: none; stroke: #000000; stroke-opacity: 0.7; stroke-width: 3"/>
    <path d="M 568.132867 507.447009 
L 568.132867 504.455772 
" clip-path="url(#pec1bd55360)" style="fill: none; stroke: #000000; stroke-opacity: 0.7; stroke-width: 3"/>
    <path d="M 597.398601 508.333574 
L 597.398601 505.57579 
" clip-path="url(#pec1bd55360)" style="fill: none; stroke: #000000; stroke-opacity: 0.7; stroke-width: 3"/>
    <path d="M 626.664336 506.551971 
L 626.664336 503.344227 
" clip-path="url(#pec1bd55360)" style="fill: none; stroke: #000000; stroke-opacity: 0.7; stroke-width: 3"/>
    <path d="M 655.93007 509.49821 
L 655.93007 507.086598 
" clip-path="url(#pec1bd55360)" style="fill: none; stroke: #000000; stroke-opacity: 0.7; stroke-width: 3"/>
    <path d="M 685.195804 511.452601 
L 685.195804 509.814233 
" clip-path="url(#pec1bd55360)" style="fill: none; stroke: #000000; stroke-opacity: 0.7; stroke-width: 3"/>
    <path d="M 714.461538 511.183807 
L 714.461538 509.414167 
" clip-path="url(#pec1bd55360)" style="fill: none; stroke: #000000; stroke-opacity: 0.7; stroke-width: 3"/>
    <path d="M 743.727273 512.444095 
L 743.727273 511.498183 
" clip-path="url(#pec1bd55360)" style="fill: none; stroke: #000000; stroke-opacity: 0.7; stroke-width: 3"/>
    <path d="M 772.993007 511.715657 
L 772.993007 510.220038 
" clip-path="url(#pec1bd55360)" style="fill: none; stroke: #000000; stroke-opacity: 0.7; stroke-width: 3"/>
    <path d="M 802.258741 512.444095 
L 802.258741 511.498183 
" clip-path="url(#pec1bd55360)" style="fill: none; stroke: #000000; stroke-opacity: 0.7; stroke-width: 3"/>
    <path d="M 831.524476 512.215959 
L 831.524476 511.057458 
" clip-path="url(#pec1bd55360)" style="fill: none; stroke: #000000; stroke-opacity: 0.7; stroke-width: 3"/>
    <path d="M 860.79021 512.64 
L 860.79021 511.971139 
" clip-path="url(#pec1bd55360)" style="fill: none; stroke: #000000; stroke-opacity: 0.7; stroke-width: 3"/>
    <path d="M 890.055944 512.64 
L 890.055944 511.971139 
" clip-path="url(#pec1bd55360)" style="fill: none; stroke: #000000; stroke-opacity: 0.7; stroke-width: 3"/>
    <path d="M 919.321678 512.444095 
L 919.321678 511.498183 
" clip-path="url(#pec1bd55360)" style="fill: none; stroke: #000000; stroke-opacity: 0.7; stroke-width: 3"/>
   </g>
   <g id="line2d_27">
    <defs>
     <path id="mdda94a3a94" d="M 5 0 
L -5 -0 
" style="stroke: #000000; stroke-opacity: 0.7; stroke-width: 2"/>
    </defs>
    <g clip-path="url(#pec1bd55360)">
     <use xlink:href="#mdda94a3a94" x="187.678322" y="113.67878" style="fill-opacity: 0.7; stroke: #000000; stroke-opacity: 0.7; stroke-width: 2"/>
     <use xlink:href="#mdda94a3a94" x="216.944056" y="198.000099" style="fill-opacity: 0.7; stroke: #000000; stroke-opacity: 0.7; stroke-width: 2"/>
     <use xlink:href="#mdda94a3a94" x="246.20979" y="310.670712" style="fill-opacity: 0.7; stroke: #000000; stroke-opacity: 0.7; stroke-width: 2"/>
     <use xlink:href="#mdda94a3a94" x="275.475524" y="329.671624" style="fill-opacity: 0.7; stroke: #000000; stroke-opacity: 0.7; stroke-width: 2"/>
     <use xlink:href="#mdda94a3a94" x="304.741259" y="386.860618" style="fill-opacity: 0.7; stroke: #000000; stroke-opacity: 0.7; stroke-width: 2"/>
     <use xlink:href="#mdda94a3a94" x="334.006993" y="415.179738" style="fill-opacity: 0.7; stroke: #000000; stroke-opacity: 0.7; stroke-width: 2"/>
     <use xlink:href="#mdda94a3a94" x="363.272727" y="435.291663" style="fill-opacity: 0.7; stroke: #000000; stroke-opacity: 0.7; stroke-width: 2"/>
     <use xlink:href="#mdda94a3a94" x="392.538462" y="464.966904" style="fill-opacity: 0.7; stroke: #000000; stroke-opacity: 0.7; stroke-width: 2"/>
     <use xlink:href="#mdda94a3a94" x="421.804196" y="470.737435" style="fill-opacity: 0.7; stroke: #000000; stroke-opacity: 0.7; stroke-width: 2"/>
     <use xlink:href="#mdda94a3a94" x="451.06993" y="479.678636" style="fill-opacity: 0.7; stroke: #000000; stroke-opacity: 0.7; stroke-width: 2"/>
     <use xlink:href="#mdda94a3a94" x="480.335664" y="493.911894" style="fill-opacity: 0.7; stroke: #000000; stroke-opacity: 0.7; stroke-width: 2"/>
     <use xlink:href="#mdda94a3a94" x="509.601399" y="498.593921" style="fill-opacity: 0.7; stroke: #000000; stroke-opacity: 0.7; stroke-width: 2"/>
     <use xlink:href="#mdda94a3a94" x="538.867133" y="503.83005" style="fill-opacity: 0.7; stroke: #000000; stroke-opacity: 0.7; stroke-width: 2"/>
     <use xlink:href="#mdda94a3a94" x="568.132867" y="507.447009" style="fill-opacity: 0.7; stroke: #000000; stroke-opacity: 0.7; stroke-width: 2"/>
     <use xlink:href="#mdda94a3a94" x="597.398601" y="508.333574" style="fill-opacity: 0.7; stroke: #000000; stroke-opacity: 0.7; stroke-width: 2"/>
     <use xlink:href="#mdda94a3a94" x="626.664336" y="506.551971" style="fill-opacity: 0.7; stroke: #000000; stroke-opacity: 0.7; stroke-width: 2"/>
     <use xlink:href="#mdda94a3a94" x="655.93007" y="509.49821" style="fill-opacity: 0.7; stroke: #000000; stroke-opacity: 0.7; stroke-width: 2"/>
     <use xlink:href="#mdda94a3a94" x="685.195804" y="511.452601" style="fill-opacity: 0.7; stroke: #000000; stroke-opacity: 0.7; stroke-width: 2"/>
     <use xlink:href="#mdda94a3a94" x="714.461538" y="511.183807" style="fill-opacity: 0.7; stroke: #000000; stroke-opacity: 0.7; stroke-width: 2"/>
     <use xlink:href="#mdda94a3a94" x="743.727273" y="512.444095" style="fill-opacity: 0.7; stroke: #000000; stroke-opacity: 0.7; stroke-width: 2"/>
     <use xlink:href="#mdda94a3a94" x="772.993007" y="511.715657" style="fill-opacity: 0.7; stroke: #000000; stroke-opacity: 0.7; stroke-width: 2"/>
     <use xlink:href="#mdda94a3a94" x="802.258741" y="512.444095" style="fill-opacity: 0.7; stroke: #000000; stroke-opacity: 0.7; stroke-width: 2"/>
     <use xlink:href="#mdda94a3a94" x="831.524476" y="512.215959" style="fill-opacity: 0.7; stroke: #000000; stroke-opacity: 0.7; stroke-width: 2"/>
     <use xlink:href="#mdda94a3a94" x="860.79021" y="512.64" style="fill-opacity: 0.7; stroke: #000000; stroke-opacity: 0.7; stroke-width: 2"/>
     <use xlink:href="#mdda94a3a94" x="890.055944" y="512.64" style="fill-opacity: 0.7; stroke: #000000; stroke-opacity: 0.7; stroke-width: 2"/>
     <use xlink:href="#mdda94a3a94" x="919.321678" y="512.444095" style="fill-opacity: 0.7; stroke: #000000; stroke-opacity: 0.7; stroke-width: 2"/>
    </g>
   </g>
   <g id="line2d_28">
    <g clip-path="url(#pec1bd55360)">
     <use xlink:href="#mdda94a3a94" x="187.678322" y="90.24" style="fill-opacity: 0.7; stroke: #000000; stroke-opacity: 0.7; stroke-width: 2"/>
     <use xlink:href="#mdda94a3a94" x="216.944056" y="177.147079" style="fill-opacity: 0.7; stroke: #000000; stroke-opacity: 0.7; stroke-width: 2"/>
     <use xlink:href="#mdda94a3a94" x="246.20979" y="293.895765" style="fill-opacity: 0.7; stroke: #000000; stroke-opacity: 0.7; stroke-width: 2"/>
     <use xlink:href="#mdda94a3a94" x="275.475524" y="313.688786" style="fill-opacity: 0.7; stroke: #000000; stroke-opacity: 0.7; stroke-width: 2"/>
     <use xlink:href="#mdda94a3a94" x="304.741259" y="373.550454" style="fill-opacity: 0.7; stroke: #000000; stroke-opacity: 0.7; stroke-width: 2"/>
     <use xlink:href="#mdda94a3a94" x="334.006993" y="403.422236" style="fill-opacity: 0.7; stroke: #000000; stroke-opacity: 0.7; stroke-width: 2"/>
     <use xlink:href="#mdda94a3a94" x="363.272727" y="424.779688" style="fill-opacity: 0.7; stroke: #000000; stroke-opacity: 0.7; stroke-width: 2"/>
     <use xlink:href="#mdda94a3a94" x="392.538462" y="456.639652" style="fill-opacity: 0.7; stroke: #000000; stroke-opacity: 0.7; stroke-width: 2"/>
     <use xlink:href="#mdda94a3a94" x="421.804196" y="462.908618" style="fill-opacity: 0.7; stroke: #000000; stroke-opacity: 0.7; stroke-width: 2"/>
     <use xlink:href="#mdda94a3a94" x="451.06993" y="472.695523" style="fill-opacity: 0.7; stroke: #000000; stroke-opacity: 0.7; stroke-width: 2"/>
     <use xlink:href="#mdda94a3a94" x="480.335664" y="488.561007" style="fill-opacity: 0.7; stroke: #000000; stroke-opacity: 0.7; stroke-width: 2"/>
     <use xlink:href="#mdda94a3a94" x="509.601399" y="493.911894" style="fill-opacity: 0.7; stroke: #000000; stroke-opacity: 0.7; stroke-width: 2"/>
     <use xlink:href="#mdda94a3a94" x="538.867133" y="500.046401" style="fill-opacity: 0.7; stroke: #000000; stroke-opacity: 0.7; stroke-width: 2"/>
     <use xlink:href="#mdda94a3a94" x="568.132867" y="504.455772" style="fill-opacity: 0.7; stroke: #000000; stroke-opacity: 0.7; stroke-width: 2"/>
     <use xlink:href="#mdda94a3a94" x="597.398601" y="505.57579" style="fill-opacity: 0.7; stroke: #000000; stroke-opacity: 0.7; stroke-width: 2"/>
     <use xlink:href="#mdda94a3a94" x="626.664336" y="503.344227" style="fill-opacity: 0.7; stroke: #000000; stroke-opacity: 0.7; stroke-width: 2"/>
     <use xlink:href="#mdda94a3a94" x="655.93007" y="507.086598" style="fill-opacity: 0.7; stroke: #000000; stroke-opacity: 0.7; stroke-width: 2"/>
     <use xlink:href="#mdda94a3a94" x="685.195804" y="509.814233" style="fill-opacity: 0.7; stroke: #000000; stroke-opacity: 0.7; stroke-width: 2"/>
     <use xlink:href="#mdda94a3a94" x="714.461538" y="509.414167" style="fill-opacity: 0.7; stroke: #000000; stroke-opacity: 0.7; stroke-width: 2"/>
     <use xlink:href="#mdda94a3a94" x="743.727273" y="511.498183" style="fill-opacity: 0.7; stroke: #000000; stroke-opacity: 0.7; stroke-width: 2"/>
     <use xlink:href="#mdda94a3a94" x="772.993007" y="510.220038" style="fill-opacity: 0.7; stroke: #000000; stroke-opacity: 0.7; stroke-width: 2"/>
     <use xlink:href="#mdda94a3a94" x="802.258741" y="511.498183" style="fill-opacity: 0.7; stroke: #000000; stroke-opacity: 0.7; stroke-width: 2"/>
     <use xlink:href="#mdda94a3a94" x="831.524476" y="511.057458" style="fill-opacity: 0.7; stroke: #000000; stroke-opacity: 0.7; stroke-width: 2"/>
     <use xlink:href="#mdda94a3a94" x="860.79021" y="511.971139" style="fill-opacity: 0.7; stroke: #000000; stroke-opacity: 0.7; stroke-width: 2"/>
     <use xlink:href="#mdda94a3a94" x="890.055944" y="511.971139" style="fill-opacity: 0.7; stroke: #000000; stroke-opacity: 0.7; stroke-width: 2"/>
     <use xlink:href="#mdda94a3a94" x="919.321678" y="511.498183" style="fill-opacity: 0.7; stroke: #000000; stroke-opacity: 0.7; stroke-width: 2"/>
    </g>
   </g>
   <g id="line2d_29">
    <defs>
     <path id="m08cc37e763" d="M 0 2.5 
C 0.663008 2.5 1.29895 2.236584 1.767767 1.767767 
C 2.236584 1.29895 2.5 0.663008 2.5 0 
C 2.5 -0.663008 2.236584 -1.29895 1.767767 -1.767767 
C 1.29895 -2.236584 0.663008 -2.5 0 -2.5 
C -0.663008 -2.5 -1.29895 -2.236584 -1.767767 -1.767767 
C -2.236584 -1.29895 -2.5 -0.663008 -2.5 0 
C -2.5 0.663008 -2.236584 1.29895 -1.767767 1.767767 
C -1.29895 2.236584 -0.663008 2.5 0 2.5 
z
" style="stroke: #000000; stroke-opacity: 0.7"/>
    </defs>
    <g clip-path="url(#pec1bd55360)">
     <use xlink:href="#m08cc37e763" x="187.678322" y="101.95939" style="fill-opacity: 0.7; stroke: #000000; stroke-opacity: 0.7"/>
     <use xlink:href="#m08cc37e763" x="216.944056" y="187.573589" style="fill-opacity: 0.7; stroke: #000000; stroke-opacity: 0.7"/>
     <use xlink:href="#m08cc37e763" x="246.20979" y="302.283238" style="fill-opacity: 0.7; stroke: #000000; stroke-opacity: 0.7"/>
     <use xlink:href="#m08cc37e763" x="275.475524" y="321.680205" style="fill-opacity: 0.7; stroke: #000000; stroke-opacity: 0.7"/>
     <use xlink:href="#m08cc37e763" x="304.741259" y="380.205536" style="fill-opacity: 0.7; stroke: #000000; stroke-opacity: 0.7"/>
     <use xlink:href="#m08cc37e763" x="334.006993" y="409.300987" style="fill-opacity: 0.7; stroke: #000000; stroke-opacity: 0.7"/>
     <use xlink:href="#m08cc37e763" x="363.272727" y="430.035675" style="fill-opacity: 0.7; stroke: #000000; stroke-opacity: 0.7"/>
     <use xlink:href="#m08cc37e763" x="392.538462" y="460.803278" style="fill-opacity: 0.7; stroke: #000000; stroke-opacity: 0.7"/>
     <use xlink:href="#m08cc37e763" x="421.804196" y="466.823026" style="fill-opacity: 0.7; stroke: #000000; stroke-opacity: 0.7"/>
     <use xlink:href="#m08cc37e763" x="451.06993" y="476.187079" style="fill-opacity: 0.7; stroke: #000000; stroke-opacity: 0.7"/>
     <use xlink:href="#m08cc37e763" x="480.335664" y="491.23645" style="fill-opacity: 0.7; stroke: #000000; stroke-opacity: 0.7"/>
     <use xlink:href="#m08cc37e763" x="509.601399" y="496.252907" style="fill-opacity: 0.7; stroke: #000000; stroke-opacity: 0.7"/>
     <use xlink:href="#m08cc37e763" x="538.867133" y="501.938225" style="fill-opacity: 0.7; stroke: #000000; stroke-opacity: 0.7"/>
     <use xlink:href="#m08cc37e763" x="568.132867" y="505.951391" style="fill-opacity: 0.7; stroke: #000000; stroke-opacity: 0.7"/>
     <use xlink:href="#m08cc37e763" x="597.398601" y="506.954682" style="fill-opacity: 0.7; stroke: #000000; stroke-opacity: 0.7"/>
     <use xlink:href="#m08cc37e763" x="626.664336" y="504.948099" style="fill-opacity: 0.7; stroke: #000000; stroke-opacity: 0.7"/>
     <use xlink:href="#m08cc37e763" x="655.93007" y="508.292404" style="fill-opacity: 0.7; stroke: #000000; stroke-opacity: 0.7"/>
     <use xlink:href="#m08cc37e763" x="685.195804" y="510.633417" style="fill-opacity: 0.7; stroke: #000000; stroke-opacity: 0.7"/>
     <use xlink:href="#m08cc37e763" x="714.461538" y="510.298987" style="fill-opacity: 0.7; stroke: #000000; stroke-opacity: 0.7"/>
     <use xlink:href="#m08cc37e763" x="743.727273" y="511.971139" style="fill-opacity: 0.7; stroke: #000000; stroke-opacity: 0.7"/>
     <use xlink:href="#m08cc37e763" x="772.993007" y="510.967848" style="fill-opacity: 0.7; stroke: #000000; stroke-opacity: 0.7"/>
     <use xlink:href="#m08cc37e763" x="802.258741" y="511.971139" style="fill-opacity: 0.7; stroke: #000000; stroke-opacity: 0.7"/>
     <use xlink:href="#m08cc37e763" x="831.524476" y="511.636709" style="fill-opacity: 0.7; stroke: #000000; stroke-opacity: 0.7"/>
     <use xlink:href="#m08cc37e763" x="860.79021" y="512.30557" style="fill-opacity: 0.7; stroke: #000000; stroke-opacity: 0.7"/>
     <use xlink:href="#m08cc37e763" x="890.055944" y="512.30557" style="fill-opacity: 0.7; stroke: #000000; stroke-opacity: 0.7"/>
     <use xlink:href="#m08cc37e763" x="919.321678" y="511.971139" style="fill-opacity: 0.7; stroke: #000000; stroke-opacity: 0.7"/>
    </g>
   </g>
   <g id="patch_29">
    <path d="M 135 512.64 
L 135 69.12 
" style="fill: none; stroke: #000000; stroke-width: 0.8; stroke-linejoin: miter; stroke-linecap: square"/>
   </g>
   <g id="patch_30">
    <path d="M 972 512.64 
L 972 69.12 
" style="fill: none; stroke: #000000; stroke-width: 0.8; stroke-linejoin: miter; stroke-linecap: square"/>
   </g>
   <g id="patch_31">
    <path d="M 135 512.64 
L 972 512.64 
" style="fill: none; stroke: #000000; stroke-width: 0.8; stroke-linejoin: miter; stroke-linecap: square"/>
   </g>
   <g id="patch_32">
    <path d="M 135 69.12 
L 972 69.12 
" style="fill: none; stroke: #000000; stroke-width: 0.8; stroke-linejoin: miter; stroke-linecap: square"/>
   </g>
   <g id="text_16">
    <!-- Mean Length of Reber String: 7.983 -->
    <g transform="translate(685.195804 184.095512)scale(0.17 -0.17)">
     <defs>
      <path id="DejaVuSans-4d" d="M 628 4666 
L 1569 4666 
L 2759 1491 
L 3956 4666 
L 4897 4666 
L 4897 0 
L 4281 0 
L 4281 4097 
L 3078 897 
L 2444 897 
L 1241 4097 
L 1241 0 
L 628 0 
L 628 4666 
z
" transform="scale(0.015625)"/>
      <path id="DejaVuSans-3a" d="M 750 794 
L 1409 794 
L 1409 0 
L 750 0 
L 750 794 
z
M 750 3309 
L 1409 3309 
L 1409 2516 
L 750 2516 
L 750 3309 
z
" transform="scale(0.015625)"/>
      <path id="DejaVuSans-37" d="M 525 4666 
L 3525 4666 
L 3525 4397 
L 1831 0 
L 1172 0 
L 2766 4134 
L 525 4134 
L 525 4666 
z
" transform="scale(0.015625)"/>
      <path id="DejaVuSans-2e" d="M 684 794 
L 1344 794 
L 1344 0 
L 684 0 
L 684 794 
z
" transform="scale(0.015625)"/>
      <path id="DejaVuSans-39" d="M 703 97 
L 703 672 
Q 941 559 1184 500 
Q 1428 441 1663 441 
Q 2288 441 2617 861 
Q 2947 1281 2994 2138 
Q 2813 1869 2534 1725 
Q 2256 1581 1919 1581 
Q 1219 1581 811 2004 
Q 403 2428 403 3163 
Q 403 3881 828 4315 
Q 1253 4750 1959 4750 
Q 2769 4750 3195 4129 
Q 3622 3509 3622 2328 
Q 3622 1225 3098 567 
Q 2575 -91 1691 -91 
Q 1453 -91 1209 -44 
Q 966 3 703 97 
z
M 1959 2075 
Q 2384 2075 2632 2365 
Q 2881 2656 2881 3163 
Q 2881 3666 2632 3958 
Q 2384 4250 1959 4250 
Q 1534 4250 1286 3958 
Q 1038 3666 1038 3163 
Q 1038 2656 1286 2365 
Q 1534 2075 1959 2075 
z
" transform="scale(0.015625)"/>
     </defs>
     <use xlink:href="#DejaVuSans-4d"/>
     <use xlink:href="#DejaVuSans-65" x="86.279297"/>
     <use xlink:href="#DejaVuSans-61" x="147.802734"/>
     <use xlink:href="#DejaVuSans-6e" x="209.082031"/>
     <use xlink:href="#DejaVuSans-20" x="272.460938"/>
     <use xlink:href="#DejaVuSans-4c" x="304.248047"/>
     <use xlink:href="#DejaVuSans-65" x="358.210938"/>
     <use xlink:href="#DejaVuSans-6e" x="419.734375"/>
     <use xlink:href="#DejaVuSans-67" x="483.113281"/>
     <use xlink:href="#DejaVuSans-74" x="546.589844"/>
     <use xlink:href="#DejaVuSans-68" x="585.798828"/>
     <use xlink:href="#DejaVuSans-20" x="649.177734"/>
     <use xlink:href="#DejaVuSans-6f" x="680.964844"/>
     <use xlink:href="#DejaVuSans-66" x="742.146484"/>
     <use xlink:href="#DejaVuSans-20" x="777.351562"/>
     <use xlink:href="#DejaVuSans-52" x="809.138672"/>
     <use xlink:href="#DejaVuSans-65" x="874.121094"/>
     <use xlink:href="#DejaVuSans-62" x="935.644531"/>
     <use xlink:href="#DejaVuSans-65" x="999.121094"/>
     <use xlink:href="#DejaVuSans-72" x="1060.644531"/>
     <use xlink:href="#DejaVuSans-20" x="1101.757812"/>
     <use xlink:href="#DejaVuSans-53" x="1133.544922"/>
     <use xlink:href="#DejaVuSans-74" x="1197.021484"/>
     <use xlink:href="#DejaVuSans-72" x="1236.230469"/>
     <use xlink:href="#DejaVuSans-69" x="1277.34375"/>
     <use xlink:href="#DejaVuSans-6e" x="1305.126953"/>
     <use xlink:href="#DejaVuSans-67" x="1368.505859"/>
     <use xlink:href="#DejaVuSans-3a" x="1431.982422"/>
     <use xlink:href="#DejaVuSans-20" x="1465.673828"/>
     <use xlink:href="#DejaVuSans-37" x="1497.460938"/>
     <use xlink:href="#DejaVuSans-2e" x="1561.083984"/>
     <use xlink:href="#DejaVuSans-39" x="1592.871094"/>
     <use xlink:href="#DejaVuSans-38" x="1656.494141"/>
     <use xlink:href="#DejaVuSans-33" x="1720.117188"/>
    </g>
   </g>
   <g id="text_17">
    <!-- Median Length of Reber String: 7.0 -->
    <g transform="translate(685.195804 225.163573)scale(0.17 -0.17)">
     <defs>
      <path id="DejaVuSans-64" d="M 2906 2969 
L 2906 4863 
L 3481 4863 
L 3481 0 
L 2906 0 
L 2906 525 
Q 2725 213 2448 61 
Q 2172 -91 1784 -91 
Q 1150 -91 751 415 
Q 353 922 353 1747 
Q 353 2572 751 3078 
Q 1150 3584 1784 3584 
Q 2172 3584 2448 3432 
Q 2725 3281 2906 2969 
z
M 947 1747 
Q 947 1113 1208 752 
Q 1469 391 1925 391 
Q 2381 391 2643 752 
Q 2906 1113 2906 1747 
Q 2906 2381 2643 2742 
Q 2381 3103 1925 3103 
Q 1469 3103 1208 2742 
Q 947 2381 947 1747 
z
" transform="scale(0.015625)"/>
     </defs>
     <use xlink:href="#DejaVuSans-4d"/>
     <use xlink:href="#DejaVuSans-65" x="86.279297"/>
     <use xlink:href="#DejaVuSans-64" x="147.802734"/>
     <use xlink:href="#DejaVuSans-69" x="211.279297"/>
     <use xlink:href="#DejaVuSans-61" x="239.0625"/>
     <use xlink:href="#DejaVuSans-6e" x="300.341797"/>
     <use xlink:href="#DejaVuSans-20" x="363.720703"/>
     <use xlink:href="#DejaVuSans-4c" x="395.507812"/>
     <use xlink:href="#DejaVuSans-65" x="449.470703"/>
     <use xlink:href="#DejaVuSans-6e" x="510.994141"/>
     <use xlink:href="#DejaVuSans-67" x="574.373047"/>
     <use xlink:href="#DejaVuSans-74" x="637.849609"/>
     <use xlink:href="#DejaVuSans-68" x="677.058594"/>
     <use xlink:href="#DejaVuSans-20" x="740.4375"/>
     <use xlink:href="#DejaVuSans-6f" x="772.224609"/>
     <use xlink:href="#DejaVuSans-66" x="833.40625"/>
     <use xlink:href="#DejaVuSans-20" x="868.611328"/>
     <use xlink:href="#DejaVuSans-52" x="900.398438"/>
     <use xlink:href="#DejaVuSans-65" x="965.380859"/>
     <use xlink:href="#DejaVuSans-62" x="1026.904297"/>
     <use xlink:href="#DejaVuSans-65" x="1090.380859"/>
     <use xlink:href="#DejaVuSans-72" x="1151.904297"/>
     <use xlink:href="#DejaVuSans-20" x="1193.017578"/>
     <use xlink:href="#DejaVuSans-53" x="1224.804688"/>
     <use xlink:href="#DejaVuSans-74" x="1288.28125"/>
     <use xlink:href="#DejaVuSans-72" x="1327.490234"/>
     <use xlink:href="#DejaVuSans-69" x="1368.603516"/>
     <use xlink:href="#DejaVuSans-6e" x="1396.386719"/>
     <use xlink:href="#DejaVuSans-67" x="1459.765625"/>
     <use xlink:href="#DejaVuSans-3a" x="1523.242188"/>
     <use xlink:href="#DejaVuSans-20" x="1556.933594"/>
     <use xlink:href="#DejaVuSans-37" x="1588.720703"/>
     <use xlink:href="#DejaVuSans-2e" x="1652.34375"/>
     <use xlink:href="#DejaVuSans-30" x="1684.130859"/>
    </g>
   </g>
  </g>
 </g>
 <defs>
  <clipPath id="pec1bd55360">
   <rect x="135" y="69.12" width="837" height="443.52"/>
  </clipPath>
 </defs>
</svg>
